<?xml version="1.0" encoding="utf-8"?>
<!-- Generator: Adobe Illustrator 15.1.0, SVG Export Plug-In . SVG Version: 6.00 Build 0)  -->
<!DOCTYPE svg PUBLIC "-//W3C//DTD SVG 1.1//EN" "http://www.w3.org/Graphics/SVG/1.1/DTD/svg11.dtd">
<svg version="1.1" xmlns="http://www.w3.org/2000/svg" xmlns:xlink="http://www.w3.org/1999/xlink" x="0px" y="0px"
	 width="595.28px" height="841.89px" viewBox="0 0 595.28 841.89" enable-background="new 0 0 595.28 841.89" xml:space="preserve">
<g id="Calque_4">
</g>
<g id="Calque_3">
	<path fill="#8E8583" stroke="#000000" stroke-width="3" stroke-miterlimit="10" d="M213.667,250.468v94.791L187.5,341.5
		c-2,4.25-1,37.5,20,38.25c0,0-8.5,41.195,15.75,41.195c0,0-0.083,36.982,83.75,27.805c84.5-9.25,100.659-14.066,111.25-22.25
		c11-8.5,7.25-37.5-1.5-43.25c0,0,19.75-28.75,11.5-42c0,0-3,5.5-19,10.5l-32.5-142l-0.429-1.718"/>
	<path fill="none" stroke="#000000" stroke-miterlimit="10" d="M372.334,284.863"/>
	<linearGradient id="SVGID_1_" gradientUnits="userSpaceOnUse" x1="173.9961" y1="196.6396" x2="433.3711" y2="196.6396">
		<stop  offset="0.1656" style="stop-color:#936037"/>
		<stop  offset="1" style="stop-color:#432918"/>
	</linearGradient>
	<polygon fill="url(#SVGID_1_)" stroke="#000000" stroke-width="3" stroke-miterlimit="10" points="229.204,209.098 
		173.996,261.223 433.371,195.598 335.454,182.057 319.829,132.057 225.038,153.89 	"/>
	<line fill="none" stroke="#000000" stroke-miterlimit="10" x1="213.667" y1="249.186" x2="213.667" y2="250.468"/>
	<path fill="#F4DDD0" stroke="#000000" stroke-miterlimit="10" d="M381.465,298.704c-3.822-3.529-7.513-8.177-9.131-13.841v-0.002
		c-2.714-0.485-5.615-1.188-8.667-2.195C346.5,277,340.5,272.5,327,237.333c3,31.167-38.333,54.833-63.688,58
		c-14.997,1.873-28.325-7.133-27.646-6.667c3.149,14.961-4.128,30.392-11.1,39.678l-0.128,1.653c0,0,4.787,68.156,83.228,61.335
		C399.667,383.333,381.465,298.704,381.465,298.704L381.465,298.704z"/>
	<path fill="none" stroke="#000000" stroke-miterlimit="10" d="M372.334,284.863c4,14,20.666,21.803,20.666,21.803"/>
	<path fill="none" stroke="#000000" stroke-miterlimit="10" d="M213.667,338.667c0,0,5.33-2.901,10.9-10.322
		c6.972-9.287,14.249-24.717,11.1-39.678"/>
	<path fill="none" stroke="#000000" stroke-miterlimit="10" d="M235.667,288.667c-0.679-0.466,12.649,8.54,27.646,6.667
		c25.354-3.167,66.688-26.833,63.688-58c13.5,35.167,19.5,39.667,36.667,45.333c16.886,5.574,29.333,2,29.333,2"/>
</g>
<g id="Calque_2">
	<path fill="#A94827" stroke="#000000" stroke-width="3" stroke-miterlimit="10" d="M270,400.5l90-13.5
		c0,0,42.578,29.818,45.124,46.303C406.17,440.076,386,460,386,461c0,0-3.725-2.921-11-5c-3.5-1,5.25-26.75,5.25-26.75l-21-11.25
		l5.75,29.75L270,462l-1.25-25.5c0-2-71,18.25-71,18.25s0.15-9.899-3.25-14L270,400.5z"/>
</g>
<g id="Calque_5">
	<polygon fill="#562417" stroke="#000000" stroke-width="3" stroke-miterlimit="10" points="270,462 365,447.75 391.5,511.25 
		254.5,527.5 	"/>
</g>
<g id="Calque_7">
	<path fill="#F4DDD0" stroke="#000000" stroke-miterlimit="10" d="M295.622,396.657c0,0-2.872,23.593,20.128,22.343
		s17.886-27.508,17.636-28.008S295.622,396.657,295.622,396.657z"/>
</g>
<g id="Calque_9">
	<path fill="#FAF9F8" stroke="#000000" stroke-miterlimit="10" d="M251.75,347.25l107.25-14c0,0,3.424,36.733-50.471,42.136
		S251.5,348.75,251.75,347.25z"/>
</g>
<g id="Calque_6">
	<path fill="none" stroke="#000000" stroke-miterlimit="10" d="M435.75,456"/>
	<polygon fill="#3F3937" stroke="#000000" stroke-miterlimit="10" points="276.25,399.562 280,470.75 289.75,468 287.763,397.835 	
		"/>
	<polygon fill="#3F3937" stroke="#000000" stroke-miterlimit="10" points="338.25,390.263 343.25,458 352.25,459.25 
		348.777,388.684 	"/>
</g>
<g id="Calque_8">
	<path fill="#8E8583" stroke="#000000" stroke-miterlimit="10" d="M277.75,474.368c-0.001,8.382,16.25,8.195,16.25-0.118
		C294,463.5,277.751,464.499,277.75,474.368z"/>
	<path fill="#8E8583" stroke="#000000" stroke-miterlimit="10" d="M339.378,465.469c0,8.382,16.25,8.195,16.25-0.118
		C355.628,454.601,339.38,455.6,339.378,465.469z"/>
</g>
<g id="Calque_10">
	<path fill="#010202" stroke="#000000" stroke-miterlimit="10" d="M248.5,320c-0.602,12.632,15,9.381,15,0.604
		C263.5,312.104,249,309.5,248.5,320z"/>
	<path fill="#040506" stroke="#000000" stroke-miterlimit="10" d="M349.612,306.927c-4.396,11.858,11.458,13.48,14.114,5.116
		C366.299,303.941,353.267,297.071,349.612,306.927z"/>
</g>
<g id="Calque_13">
	<polygon fill="#F4DDD0" stroke="#000000" stroke-width="3" stroke-miterlimit="10" points="326.312,518.982 362.957,514.636 
		372.334,555.334 345.25,564.667 	"/>
	<polygon fill="#F4DDD0" stroke="#000000" stroke-width="3" stroke-miterlimit="10" points="272.939,525.312 308.529,521.092 
		297.64,564.667 269.667,564.667 	"/>
</g>
<g id="Calque_14">
	<path fill="#8E8583" stroke="#000000" stroke-width="3" stroke-miterlimit="10" d="M267,564.667h32.832
		c0,0-8.832,47.833-10.082,51.333c0,0-43.61,0.75-47.11,1.75s19.901-15.158,24.36-16.25V564.667z"/>
	<path fill="#8E8583" stroke="#000000" stroke-width="3" stroke-miterlimit="10" d="M340.5,567l37.038-13.032l-3.036,47.5
		c0,0,24.248,12.032,24.998,14.032s-45,2.295-45,2.295l-0.5-5.045L340.5,567z"/>
</g>
<g id="Calque_15">
	<linearGradient id="SVGID_2_" gradientUnits="userSpaceOnUse" x1="121.9385" y1="232.0703" x2="176.1664" y2="322.3206">
		<stop  offset="0" style="stop-color:#BABABA"/>
		<stop  offset="0.3006" style="stop-color:#FFFFFF"/>
		<stop  offset="1" style="stop-color:#6F6F6F"/>
	</linearGradient>
	<path fill="url(#SVGID_2_)" stroke="#000000" stroke-miterlimit="10" d="M104.333,242.667c0,0,4.667-3.333,6.667,0
		s18.333,71,18.333,71c8,3,41.922,5.196,57.461-17.902c0,0-20.182-64.042-18.461-68.431c0.885-2.257,5.663-4,5.663-4l22.337,78.728
		c0,0-11.421,33.726-73.333,27.062C121.299,328.94,104.333,242.667,104.333,242.667z"/>
	<linearGradient id="SVGID_3_" gradientUnits="userSpaceOnUse" x1="134.3335" y1="272.2759" x2="164.6074" y2="272.2759">
		<stop  offset="0" style="stop-color:#BABABA"/>
		<stop  offset="0.3006" style="stop-color:#FFFFFF"/>
		<stop  offset="1" style="stop-color:#6F6F6F"/>
	</linearGradient>
	<path fill="url(#SVGID_3_)" stroke="#000000" stroke-miterlimit="10" d="M153.023,314.844l-18.689-82.51
		c0,0,1.333-3.667,7.333-2.333l22.941,82.123"/>
	<linearGradient id="SVGID_4_" gradientUnits="userSpaceOnUse" x1="165.5898" y1="324.5059" x2="155.7586" y2="354.7632">
		<stop  offset="0" style="stop-color:#BABABA"/>
		<stop  offset="0.3006" style="stop-color:#E1E1E1"/>
		<stop  offset="1" style="stop-color:#6F6F6F"/>
	</linearGradient>
	<polygon fill="url(#SVGID_4_)" stroke="#000000" stroke-miterlimit="10" points="147.333,329.659 150.333,353 173.996,349.667 
		168.474,325.443 	"/>
</g>
<g id="Calque_16">
	<linearGradient id="SVGID_5_" gradientUnits="userSpaceOnUse" x1="176.4614" y1="483.9629" x2="192.8707" y2="481.3639">
		<stop  offset="0" style="stop-color:#432918"/>
		<stop  offset="0.3006" style="stop-color:#936037"/>
		<stop  offset="1" style="stop-color:#432918"/>
	</linearGradient>
	<path fill="url(#SVGID_5_)" stroke="#000000" stroke-miterlimit="10" d="M155.655,352.251l14.984-2.111l43.027,262.527
		c0,0-9.606,3.333-13.803,0S155.655,352.251,155.655,352.251z"/>
</g>
<g id="Calque_12">
	<linearGradient id="SVGID_6_" gradientUnits="userSpaceOnUse" x1="224.356" y1="187.5137" x2="339.3789" y2="187.5137">
		<stop  offset="0.1656" style="stop-color:#F39200"/>
		<stop  offset="1" style="stop-color:#E94E1B"/>
	</linearGradient>
	<polygon fill="url(#SVGID_6_)" stroke="#000000" stroke-miterlimit="10" points="224.356,186.4 330.667,161 339.379,185.5 
		225.867,214.028 	"/>
</g>
<g id="Calque_11">
	<path fill="#F4DDD0" stroke="#000000" stroke-miterlimit="10" d="M361.15,467.367c-10.529,28.401,27.444,32.289,33.807,12.252
		C401.118,460.214,369.902,443.758,361.15,467.367z"/>
	<path fill="#F4DDD0" stroke="#000000" stroke-miterlimit="10" d="M165.258,445.95c-10.529,28.401,27.444,32.289,33.807,12.252
		C205.226,438.797,174.01,422.341,165.258,445.95z"/>
</g>
</svg>
